<svg width="256" height="256" viewBox="0 0 256 256" fill="none" xmlns="http://www.w3.org/2000/svg" role="img" aria-label="zentrade-ai-brand-icon">
  <defs>
    <linearGradient id="g" x1="32" y1="28" x2="224" y2="228" gradientUnits="userSpaceOnUse">
      <stop stop-color="#00E5FF"/><stop offset="0.55" stop-color="#8B5CFF"/><stop offset="1" stop-color="#FF4FD8"/>
    </linearGradient>
    <filter id="glow" x="-40%" y="-40%" width="180%" height="180%"><feGaussianBlur stdDeviation="4" result="b"/><feMerge><feMergeNode in="b"/><feMergeNode in="SourceGraphic"/></feMerge></filter>
  </defs>
  <rect width="256" height="256" rx="56" fill="#070A18"/>
  <g filter="url(#glow)" stroke="url(#g)" stroke-width="8" stroke-linecap="round" stroke-linejoin="round">
    <circle cx="128" cy="118" r="80" opacity=".85"/>
    <path d="M76 165V99c0-30 23-55 52-55s52 25 52 55v66"/>
    <path d="M91 103c14-23 59-23 74 0"/>
    <path d="M98 126h22M136 126h22"/>
    <path d="M111 153c14 10 24 10 38 0"/>
    <path d="M67 111h-18v39h18M189 111h18v39h-18"/>
    <path d="M57 191h142"/>
    <path d="M78 211h100"/>
  </g>
</svg>